<svg width="18" height="20" viewBox="0 0 18 20" fill="none" xmlns="http://www.w3.org/2000/svg">
<path fill-rule="evenodd" clip-rule="evenodd" d="M17.7834 17.2284L12 7.58625V2.25H12.75C13.1642 2.25 13.5 1.91421 13.5 1.5C13.5 1.08579 13.1642 0.75 12.75 0.75H5.25C4.83579 0.75 4.5 1.08579 4.5 1.5C4.5 1.91421 4.83579 2.25 5.25 2.25H6V7.58625L0.216563 17.2284C-0.0611243 17.6914 -0.0686164 18.2679 0.196944 18.7379C0.462505 19.2079 0.96015 19.499 1.5 19.5H16.5C17.0404 19.5 17.5389 19.2093 17.8052 18.7391C18.0714 18.2689 18.0642 17.6918 17.7862 17.2284H17.7834ZM7.39312 8.17969C7.46327 8.06342 7.50023 7.93016 7.5 7.79438V2.25H10.5V7.79438C10.4998 7.93016 10.5367 8.06342 10.6069 8.17969L14.19 14.1562C13.065 14.3784 11.4647 14.2847 9.33844 13.2084C7.84687 12.4538 6.4275 12.0534 5.09906 12.0075L7.39312 8.17969ZM1.5 18L4.17562 13.5394C5.51156 13.3763 7.01719 13.7128 8.65875 14.5444C10.44 15.4453 11.94 15.7519 13.1588 15.7519C13.7786 15.7546 14.3957 15.6694 14.9916 15.4988L16.5 18H1.5Z" fill="#121217"/>
</svg>
