<svg width="22" height="20" viewBox="0 0 22 20" fill="none" xmlns="http://www.w3.org/2000/svg">
<path fill-rule="evenodd" clip-rule="evenodd" d="M21.75 1.5C21.75 1.08579 21.4142 0.75 21 0.75C16.8675 0.75 12.6272 5.41031 10.2722 8.49656C8.56661 7.97421 6.71436 8.2918 5.28021 9.35248C3.84605 10.4132 2.99999 12.0912 3 13.875C3 16.77 1.16813 18.0684 1.08094 18.1284C0.807815 18.3129 0.687086 18.654 0.783384 18.9692C0.879682 19.2843 1.17044 19.4997 1.5 19.5H8.625C10.4088 19.5 12.0868 18.6539 13.1475 17.2198C14.2082 15.7856 14.5258 13.9334 14.0034 12.2278C17.0906 9.87281 21.75 5.6325 21.75 1.5ZM8.625 18H3.24656C3.87937 17.1009 4.5 15.7425 4.5 13.875C4.5 11.5968 6.34683 9.75 8.625 9.75C10.9032 9.75 12.75 11.5968 12.75 13.875C12.75 16.1532 10.9032 18 8.625 18ZM11.6644 9.14531C11.9856 8.72906 12.3009 8.33687 12.6103 7.96875C13.3676 8.48035 14.0196 9.13244 14.5312 9.88969C14.1625 10.1984 13.7703 10.5138 13.3547 10.8356C12.9176 10.1586 12.3414 9.58236 11.6644 9.14531ZM15.6675 8.89406C15.1013 8.09512 14.4039 7.39778 13.605 6.83156C16.5844 3.59437 18.8316 2.61281 20.1581 2.34C19.8909 3.6675 18.9047 5.91469 15.6675 8.89406Z" fill="#121217"/>
</svg>
