<svg width="17" height="17" viewBox="0 0 17 17" fill="none" xmlns="http://www.w3.org/2000/svg">
<path fill-rule="evenodd" clip-rule="evenodd" d="M9.125 12.5625C9.125 13.0803 8.70527 13.5 8.1875 13.5C7.66973 13.5 7.25 13.0803 7.25 12.5625C7.25 12.0447 7.66973 11.625 8.1875 11.625C8.70527 11.625 9.125 12.0447 9.125 12.5625ZM8.1875 4.125C6.46406 4.125 5.0625 5.38672 5.0625 6.9375V7.25C5.0625 7.59518 5.34232 7.875 5.6875 7.875C6.03268 7.875 6.3125 7.59518 6.3125 7.25V6.9375C6.3125 6.07812 7.15391 5.375 8.1875 5.375C9.22109 5.375 10.0625 6.07812 10.0625 6.9375C10.0625 7.79688 9.22109 8.5 8.1875 8.5C7.84232 8.5 7.5625 8.77982 7.5625 9.125V9.75C7.5625 10.0952 7.84232 10.375 8.1875 10.375C8.53268 10.375 8.8125 10.0952 8.8125 9.75V9.69375C10.2375 9.43203 11.3125 8.29531 11.3125 6.9375C11.3125 5.38672 9.91094 4.125 8.1875 4.125ZM16.3125 8.5C16.3125 12.9873 12.6748 16.625 8.1875 16.625C3.70019 16.625 0.0625 12.9873 0.0625 8.5C0.0625 4.01269 3.70019 0.375 8.1875 0.375C12.6728 0.379737 16.3078 4.01465 16.3125 8.5ZM15.0625 8.5C15.0625 4.70304 11.9845 1.625 8.1875 1.625C4.39054 1.625 1.3125 4.70304 1.3125 8.5C1.3125 12.297 4.39054 15.375 8.1875 15.375C11.9827 15.3707 15.0582 12.2952 15.0625 8.5Z" fill="#121217"/>
</svg>
