<svg width="18" height="21" viewBox="0 0 18 21" fill="none" xmlns="http://www.w3.org/2000/svg">
<path fill-rule="evenodd" clip-rule="evenodd" d="M4.5 9.75H13.5C13.9142 9.75 14.25 9.41421 14.25 9V4.5C14.25 4.08579 13.9142 3.75 13.5 3.75H4.5C4.08579 3.75 3.75 4.08579 3.75 4.5V9C3.75 9.41421 4.08579 9.75 4.5 9.75ZM5.25 5.25H12.75V8.25H5.25V5.25ZM15.75 0.75H2.25C1.42157 0.75 0.75 1.42157 0.75 2.25V18.75C0.75 19.5784 1.42157 20.25 2.25 20.25H15.75C16.5784 20.25 17.25 19.5784 17.25 18.75V2.25C17.25 1.42157 16.5784 0.75 15.75 0.75ZM15.75 18.75H2.25V2.25H15.75V18.75ZM6.375 12.375C6.375 12.9963 5.87132 13.5 5.25 13.5C4.62868 13.5 4.125 12.9963 4.125 12.375C4.125 11.7537 4.62868 11.25 5.25 11.25C5.87132 11.25 6.375 11.7537 6.375 12.375ZM10.125 12.375C10.125 12.9963 9.62132 13.5 9 13.5C8.37868 13.5 7.875 12.9963 7.875 12.375C7.875 11.7537 8.37868 11.25 9 11.25C9.62132 11.25 10.125 11.7537 10.125 12.375ZM13.875 12.375C13.875 12.9963 13.3713 13.5 12.75 13.5C12.1287 13.5 11.625 12.9963 11.625 12.375C11.625 11.7537 12.1287 11.25 12.75 11.25C13.3713 11.25 13.875 11.7537 13.875 12.375ZM6.375 16.125C6.375 16.7463 5.87132 17.25 5.25 17.25C4.62868 17.25 4.125 16.7463 4.125 16.125C4.125 15.5037 4.62868 15 5.25 15C5.87132 15 6.375 15.5037 6.375 16.125ZM10.125 16.125C10.125 16.7463 9.62132 17.25 9 17.25C8.37868 17.25 7.875 16.7463 7.875 16.125C7.875 15.5037 8.37868 15 9 15C9.62132 15 10.125 15.5037 10.125 16.125ZM13.875 16.125C13.875 16.7463 13.3713 17.25 12.75 17.25C12.1287 17.25 11.625 16.7463 11.625 16.125C11.625 15.5037 12.1287 15 12.75 15C13.3713 15 13.875 15.5037 13.875 16.125Z" fill="#121217"/>
</svg>
